solid vcg
  facet normal -1.000000e+00  0.000000e+00  0.000000e+00
    outer loop
      vertex  -5.000000e+00 -5.000000e+00 -5.000000e+00
      vertex  -5.000000e+00 -5.000000e+00  5.000000e+00
      vertex  -5.000000e+00  5.000000e+00 -5.000000e+00
    endloop
  endfacet
  facet normal -1.000000e+00  0.000000e+00  0.000000e+00
    outer loop
      vertex  -5.000000e+00  5.000000e+00 -5.000000e+00
      vertex  -5.000000e+00 -5.000000e+00  5.000000e+00
      vertex  -5.000000e+00  5.000000e+00  5.000000e+00
    endloop
  endfacet
  facet normal  0.000000e+00 -1.000000e+00  0.000000e+00
    outer loop
      vertex  -5.000000e+00 -5.000000e+00  5.000000e+00
      vertex  -5.000000e+00 -5.000000e+00 -5.000000e+00
      vertex   5.000000e+00 -5.000000e+00 -5.000000e+00
    endloop
  endfacet
  facet normal -0.000000e+00 -1.000000e+00 -0.000000e+00
    outer loop
      vertex   5.000000e+00 -5.000000e+00  5.000000e+00
      vertex  -5.000000e+00 -5.000000e+00  5.000000e+00
      vertex   5.000000e+00 -5.000000e+00 -5.000000e+00
    endloop
  endfacet
  facet normal  0.000000e+00  0.000000e+00 -1.000000e+00
    outer loop
      vertex  -5.000000e+00 -5.000000e+00 -5.000000e+00
      vertex  -5.000000e+00  5.000000e+00 -5.000000e+00
      vertex   5.000000e+00 -5.000000e+00 -5.000000e+00
    endloop
  endfacet
  facet normal  0.000000e+00  0.000000e+00 -1.000000e+00
    outer loop
      vertex   5.000000e+00 -5.000000e+00 -5.000000e+00
      vertex  -5.000000e+00  5.000000e+00 -5.000000e+00
      vertex   5.000000e+00  5.000000e+00 -5.000000e+00
    endloop
  endfacet
  facet normal  0.000000e+00  1.000000e+00  0.000000e+00
    outer loop
      vertex  -5.000000e+00  5.000000e+00 -5.000000e+00
      vertex  -5.000000e+00  5.000000e+00  5.000000e+00
      vertex   5.000000e+00  5.000000e+00 -5.000000e+00
    endloop
  endfacet
  facet normal  0.000000e+00  1.000000e+00 -0.000000e+00
    outer loop
      vertex   5.000000e+00  5.000000e+00 -5.000000e+00
      vertex  -5.000000e+00  5.000000e+00  5.000000e+00
      vertex   5.000000e+00  5.000000e+00  5.000000e+00
    endloop
  endfacet
  facet normal  0.000000e+00  0.000000e+00  1.000000e+00
    outer loop
      vertex  -5.000000e+00  5.000000e+00  5.000000e+00
      vertex  -5.000000e+00 -5.000000e+00  5.000000e+00
      vertex   5.000000e+00 -5.000000e+00  5.000000e+00
    endloop
  endfacet
  facet normal  0.000000e+00  0.000000e+00  1.000000e+00
    outer loop
      vertex   5.000000e+00  5.000000e+00  5.000000e+00
      vertex  -5.000000e+00  5.000000e+00  5.000000e+00
      vertex   5.000000e+00 -5.000000e+00  5.000000e+00
    endloop
  endfacet
  facet normal  1.000000e+00  0.000000e+00  0.000000e+00
    outer loop
      vertex   5.000000e+00 -5.000000e+00  5.000000e+00
      vertex   5.000000e+00 -5.000000e+00 -5.000000e+00
      vertex   5.000000e+00  5.000000e+00 -5.000000e+00
    endloop
  endfacet
  facet normal  1.000000e+00  0.000000e+00  0.000000e+00
    outer loop
      vertex   5.000000e+00  5.000000e+00  5.000000e+00
      vertex   5.000000e+00 -5.000000e+00  5.000000e+00
      vertex   5.000000e+00  5.000000e+00 -5.000000e+00
    endloop
  endfacet
  facet normal  1.000000e+00  0.000000e+00  0.000000e+00
    outer loop
      vertex  -4.000000e+00  4.000000e+00 -4.000000e+00
      vertex  -4.000000e+00 -4.000000e+00  4.000000e+00
      vertex  -4.000000e+00 -4.000000e+00 -4.000000e+00
    endloop
  endfacet
  facet normal  1.000000e+00  0.000000e+00  0.000000e+00
    outer loop
      vertex  -4.000000e+00  4.000000e+00  4.000000e+00
      vertex  -4.000000e+00 -4.000000e+00  4.000000e+00
      vertex  -4.000000e+00  4.000000e+00 -4.000000e+00
    endloop
  endfacet
  facet normal  0.000000e+00  1.000000e+00  0.000000e+00
    outer loop
      vertex   4.000000e+00 -4.000000e+00 -4.000000e+00
      vertex  -4.000000e+00 -4.000000e+00 -4.000000e+00
      vertex  -4.000000e+00 -4.000000e+00  4.000000e+00
    endloop
  endfacet
  facet normal  0.000000e+00  1.000000e+00 -0.000000e+00
    outer loop
      vertex   4.000000e+00 -4.000000e+00 -4.000000e+00
      vertex  -4.000000e+00 -4.000000e+00  4.000000e+00
      vertex   4.000000e+00 -4.000000e+00  4.000000e+00
    endloop
  endfacet
  facet normal  0.000000e+00  0.000000e+00  1.000000e+00
    outer loop
      vertex   4.000000e+00 -4.000000e+00 -4.000000e+00
      vertex  -4.000000e+00  4.000000e+00 -4.000000e+00
      vertex  -4.000000e+00 -4.000000e+00 -4.000000e+00
    endloop
  endfacet
  facet normal  0.000000e+00  0.000000e+00  1.000000e+00
    outer loop
      vertex   4.000000e+00  4.000000e+00 -4.000000e+00
      vertex  -4.000000e+00  4.000000e+00 -4.000000e+00
      vertex   4.000000e+00 -4.000000e+00 -4.000000e+00
    endloop
  endfacet
  facet normal  0.000000e+00 -1.000000e+00  0.000000e+00
    outer loop
      vertex   4.000000e+00  4.000000e+00 -4.000000e+00
      vertex  -4.000000e+00  4.000000e+00  4.000000e+00
      vertex  -4.000000e+00  4.000000e+00 -4.000000e+00
    endloop
  endfacet
  facet normal -0.000000e+00 -1.000000e+00 -0.000000e+00
    outer loop
      vertex   4.000000e+00  4.000000e+00  4.000000e+00
      vertex  -4.000000e+00  4.000000e+00  4.000000e+00
      vertex   4.000000e+00  4.000000e+00 -4.000000e+00
    endloop
  endfacet
  facet normal  0.000000e+00  0.000000e+00 -1.000000e+00
    outer loop
      vertex   4.000000e+00 -4.000000e+00  4.000000e+00
      vertex  -4.000000e+00 -4.000000e+00  4.000000e+00
      vertex  -4.000000e+00  4.000000e+00  4.000000e+00
    endloop
  endfacet
  facet normal  0.000000e+00  0.000000e+00 -1.000000e+00
    outer loop
      vertex   4.000000e+00 -4.000000e+00  4.000000e+00
      vertex  -4.000000e+00  4.000000e+00  4.000000e+00
      vertex   4.000000e+00  4.000000e+00  4.000000e+00
    endloop
  endfacet
  facet normal -1.000000e+00  0.000000e+00  0.000000e+00
    outer loop
      vertex   4.000000e+00  4.000000e+00 -4.000000e+00
      vertex   4.000000e+00 -4.000000e+00 -4.000000e+00
      vertex   4.000000e+00 -4.000000e+00  4.000000e+00
    endloop
  endfacet
  facet normal -1.000000e+00  0.000000e+00  0.000000e+00
    outer loop
      vertex   4.000000e+00  4.000000e+00 -4.000000e+00
      vertex   4.000000e+00 -4.000000e+00  4.000000e+00
      vertex   4.000000e+00  4.000000e+00  4.000000e+00
    endloop
  endfacet
endsolid vcg
